<svg width="135" height="40" viewBox="0 0 135 40" fill="none" xmlns="http://www.w3.org/2000/svg">
<g clip-path="url(#clip0)">
<path d="M50.9766 11V22.3437C50.9687 24.1875 50.1094 25.1719 48.5781 25.1719C47.1641 25.1719 46.1797 24.3281 46.1719 23H43.7734C43.7734 25.7031 45.8047 27.2187 48.5156 27.2187C51.4531 27.2187 53.375 25.4219 53.3828 22.3437V11H50.9766ZM64.3105 22.0234C64.3184 24.0625 62.8027 25.0312 61.4902 25.0312C60.0449 25.0312 59.0449 23.9844 59.0449 22.3516V15H56.709V22.6328C56.709 25.6094 58.3418 27.1563 60.6465 27.1563C62.4512 27.1563 63.6777 26.2031 64.2324 24.9219H64.3574V27H66.6543V15H64.3105V22.0234ZM78.7852 17.9297C78.3008 16.0625 76.8398 14.8438 74.2461 14.8438C71.5352 14.8438 69.6133 16.2734 69.6133 18.3984C69.6133 20.1016 70.6445 21.2344 72.8945 21.7344L74.9258 22.1797C76.082 22.4375 76.6211 22.9531 76.6211 23.7031C76.6211 24.6328 75.6289 25.3594 74.0977 25.3594C72.6992 25.3594 71.8008 24.7578 71.5195 23.5781L69.2617 23.9219C69.6523 26.0469 71.418 27.2422 74.1133 27.2422C77.0117 27.2422 79.0195 25.7031 79.0195 23.5313C79.0195 21.8359 77.9414 20.7891 75.7383 20.2812L73.832 19.8437C72.5117 19.5312 71.9414 19.0859 71.9492 18.2734C71.9414 17.3516 72.9414 16.6953 74.2695 16.6953C75.7227 16.6953 76.3945 17.5 76.668 18.3047L78.7852 17.9297ZM87.1895 15H84.7285V12.125H82.3926V15H80.6348V16.875H82.3926V23.9609C82.3848 26.1406 84.0488 27.1953 85.8926 27.1563C86.6348 27.1484 87.1348 27.0078 87.4082 26.9062L86.9863 24.9766C86.8301 25.0078 86.541 25.0781 86.166 25.0781C85.4082 25.0781 84.7285 24.8281 84.7285 23.4766V16.875H87.1895V15ZM92.1094 19.875C92.1094 17.9609 93.2813 16.8672 94.9062 16.8672C96.4922 16.8672 97.4531 17.9062 97.4531 19.6484V27H99.7891V19.3672C99.7891 16.3984 98.1563 14.8438 95.7031 14.8438C93.8984 14.8438 92.7188 15.6797 92.1641 16.9531H92.0156V15H89.7734V27H92.1094V19.875ZM107.977 27.2422C111.359 27.2422 113.57 24.7656 113.57 21.0547C113.57 17.3203 111.359 14.8438 107.977 14.8438C104.594 14.8438 102.383 17.3203 102.383 21.0547C102.383 24.7656 104.594 27.2422 107.977 27.2422ZM107.984 25.2812C105.773 25.2812 104.742 23.3516 104.742 21.0469C104.742 18.75 105.773 16.7969 107.984 16.7969C110.18 16.7969 111.211 18.75 111.211 21.0469C111.211 23.3516 110.18 25.2812 107.984 25.2812ZM121.779 15H119.318V12.125H116.982V15H115.225V16.875H116.982V23.9609C116.975 26.1406 118.639 27.1953 120.482 27.1563C121.225 27.1484 121.725 27.0078 121.998 26.9062L121.576 24.9766C121.42 25.0078 121.131 25.0781 120.756 25.0781C119.998 25.0781 119.318 24.8281 119.318 23.4766V16.875H121.779V15ZM129.406 27.2422C132.023 27.2422 133.875 25.9531 134.406 24L132.195 23.6016C131.773 24.7344 130.758 25.3125 129.43 25.3125C127.43 25.3125 126.086 24.0156 126.023 21.7031H134.555V20.875C134.555 16.5391 131.961 14.8438 129.242 14.8438C125.898 14.8438 123.695 17.3906 123.695 21.0781C123.695 24.8047 125.867 27.2422 129.406 27.2422ZM126.031 19.9531C126.125 18.25 127.359 16.7734 129.258 16.7734C131.07 16.7734 132.258 18.1172 132.266 19.9531H126.031Z" fill="#3F3F46"/>
<path d="M33.448 5.672L36.232 6.008C35.656 8.504 34.872 11.432 33.88 14.792C32.92 18.12 32.04 20.824 31.24 22.904C30.44 24.952 29.56 27 28.6 29.048C27.672 31.064 26.68 32.664 25.624 33.848C24.568 35 23.544 35.576 22.552 35.576C21.56 35.576 20.824 35.208 20.344 34.472C19.896 33.736 19.672 32.44 19.672 30.584C19.672 28.696 19.944 24.76 20.488 18.776C21.032 12.76 21.304 9.496 21.304 8.984C21.336 8.44 21.208 8.168 20.92 8.168C20.568 8.168 20.152 8.664 19.672 9.656C19.192 10.616 18.824 11.352 18.568 11.864C17.896 13.368 17.464 14.424 17.272 15.032C15.48 19.064 13.88 22.392 12.472 25.016C11.064 27.64 9.448 30.072 7.624 32.312C6.984 33.08 6.072 33.864 4.888 34.664C3.704 35.464 2.6 36.072 1.576 36.488L0.52 33.656C3.176 32.536 5.576 30.6 7.72 27.848C9.864 25.064 12.072 21.192 14.344 16.232C16.648 11.272 18.296 7.928 19.288 6.2C20.408 4.376 21.544 3.464 22.696 3.464C23.432 3.464 24.008 3.72 24.424 4.232C24.84 4.744 25.048 5.416 25.048 6.248C25.048 7.048 24.76 10.408 24.184 16.328C23.64 22.248 23.368 26.04 23.368 27.704C23.368 29.368 23.432 30.456 23.56 30.968C23.72 31.448 23.976 31.688 24.328 31.688C24.776 31.688 25.256 31.208 25.768 30.248C27.528 26.824 30.088 18.632 33.448 5.672Z" fill="#16A34A"/>
</g>
<defs>
<clipPath id="clip0">
<rect width="135" height="40" fill="white"/>
</clipPath>
</defs>
</svg>
