<svg width="40" height="40" viewBox="0 0 40 40" fill="none" xmlns="http://www.w3.org/2000/svg">
<g clip-path="url(#clip0)">
<path d="M36.402 5.228L39.418 5.592C38.794 8.296 37.9447 11.468 36.87 15.108C35.83 18.7133 34.8767 21.6427 34.01 23.896C33.1433 26.1147 32.19 28.3333 31.15 30.552C30.1447 32.736 29.07 34.4693 27.926 35.752C26.782 37 25.6727 37.624 24.598 37.624C23.5233 37.624 22.726 37.2253 22.206 36.428C21.7207 35.6307 21.478 34.2267 21.478 32.216C21.478 30.1707 21.7727 25.9067 22.362 19.424C22.9513 12.9067 23.246 9.37066 23.246 8.816C23.2807 8.22667 23.142 7.932 22.83 7.932C22.4487 7.932 21.998 8.46933 21.478 9.544C20.958 10.584 20.5593 11.3813 20.282 11.936C19.554 13.5653 19.086 14.7093 18.878 15.368C16.9367 19.736 15.2033 23.3413 13.678 26.184C12.1527 29.0267 10.402 31.6613 8.426 34.088C7.73267 34.92 6.74467 35.7693 5.462 36.636C4.17933 37.5027 2.98333 38.1613 1.874 38.612L0.73 35.544C3.60733 34.3307 6.20733 32.2333 8.53 29.252C10.8527 26.236 13.2447 22.0413 15.706 16.668C18.202 11.2947 19.9873 7.672 21.062 5.8C22.2753 3.824 23.506 2.836 24.754 2.836C25.5513 2.836 26.1753 3.11333 26.626 3.668C27.0767 4.22267 27.302 4.95067 27.302 5.852C27.302 6.71867 26.99 10.3587 26.366 16.772C25.7767 23.1853 25.482 27.2933 25.482 29.096C25.482 30.8987 25.5513 32.0773 25.69 32.632C25.8633 33.152 26.1407 33.412 26.522 33.412C27.0073 33.412 27.5273 32.892 28.082 31.852C29.9887 28.1427 32.762 19.268 36.402 5.228Z" fill="#16A34A"/>
</g>
<defs>
<clipPath id="clip0">
<rect width="40" height="40" fill="white"/>
</clipPath>
</defs>
</svg>
