<svg width="135" height="40" viewBox="0 0 135 40" fill="none" xmlns="http://www.w3.org/2000/svg">
<g clip-path="url(#clip0_1314_16285)">
<path d="M50.9766 11H53.3828V22.3437C53.3828 23.3698 53.1797 24.2474 52.7734 24.9766C52.3724 25.7057 51.8073 26.263 51.0781 26.6484C50.349 27.0286 49.4948 27.2187 48.5156 27.2187C47.6146 27.2187 46.8047 27.0547 46.0859 26.7266C45.3724 26.3984 44.8073 25.9219 44.3906 25.2969C43.9792 24.6667 43.7734 23.901 43.7734 23H46.1719C46.1719 23.4427 46.2734 23.8255 46.4766 24.1484C46.6849 24.4714 46.9688 24.724 47.3281 24.9062C47.6927 25.0833 48.1094 25.1719 48.5781 25.1719C49.0885 25.1719 49.5208 25.0651 49.875 24.8516C50.2344 24.6328 50.5078 24.3125 50.6953 23.8906C50.8828 23.4687 50.9766 22.9531 50.9766 22.3437V11ZM64.3105 22.0234V15H66.6543V27H64.3574V24.9219H64.2324C63.9564 25.5625 63.5137 26.0964 62.9043 26.5234C62.3001 26.9453 61.5475 27.1563 60.6465 27.1563C59.8757 27.1563 59.1934 26.987 58.5996 26.6484C58.0111 26.3047 57.5475 25.7969 57.209 25.125C56.8757 24.4531 56.709 23.6224 56.709 22.6328V15H59.0449V22.3516C59.0449 23.1693 59.2715 23.8203 59.7246 24.3047C60.1777 24.7891 60.7663 25.0312 61.4902 25.0312C61.9277 25.0312 62.3626 24.9219 62.7949 24.7031C63.2324 24.4844 63.5944 24.1536 63.8809 23.7109C64.1725 23.2682 64.3158 22.7057 64.3105 22.0234ZM78.7852 17.9297L76.668 18.3047C76.5794 18.0339 76.4388 17.776 76.2461 17.5312C76.0586 17.2865 75.8034 17.0859 75.4805 16.9297C75.1576 16.7734 74.7539 16.6953 74.2695 16.6953C73.6081 16.6953 73.056 16.8437 72.6133 17.1406C72.1706 17.4323 71.9492 17.8099 71.9492 18.2734C71.9492 18.6745 72.0977 18.9974 72.3945 19.2422C72.6914 19.487 73.1706 19.6875 73.832 19.8437L75.7383 20.2812C76.8424 20.5365 77.6654 20.9297 78.207 21.4609C78.7487 21.9922 79.0195 22.6823 79.0195 23.5313C79.0195 24.25 78.8112 24.8906 78.3945 25.4531C77.9831 26.0104 77.4076 26.4479 76.668 26.7656C75.9336 27.0833 75.082 27.2422 74.1133 27.2422C72.7695 27.2422 71.6732 26.9557 70.8242 26.3828C69.9753 25.8047 69.4544 24.9844 69.2617 23.9219L71.5195 23.5781C71.6602 24.1667 71.9492 24.612 72.3867 24.9141C72.8242 25.2109 73.3945 25.3594 74.0977 25.3594C74.8633 25.3594 75.4753 25.2005 75.9336 24.8828C76.3919 24.5599 76.6211 24.1667 76.6211 23.7031C76.6211 23.3281 76.4805 23.013 76.1992 22.7578C75.9232 22.5026 75.4987 22.3099 74.9258 22.1797L72.8945 21.7344C71.7747 21.4792 70.9466 21.0729 70.4102 20.5156C69.8789 19.9583 69.6133 19.2526 69.6133 18.3984C69.6133 17.6901 69.8112 17.0703 70.207 16.5391C70.6029 16.0078 71.1497 15.5937 71.8477 15.2969C72.5456 14.9948 73.3451 14.8438 74.2461 14.8438C75.543 14.8438 76.5638 15.125 77.3086 15.6875C78.0534 16.2448 78.5456 16.9922 78.7852 17.9297ZM87.1895 15V16.875H80.6348V15H87.1895ZM82.3926 12.125H84.7285V23.4766C84.7285 23.9297 84.7962 24.2708 84.9316 24.5C85.0671 24.724 85.2415 24.8776 85.4551 24.9609C85.6738 25.0391 85.9108 25.0781 86.166 25.0781C86.3535 25.0781 86.5176 25.0651 86.6582 25.0391C86.7988 25.013 86.9082 24.9922 86.9863 24.9766L87.4082 26.9062C87.2728 26.9583 87.0801 27.0104 86.8301 27.0625C86.5801 27.1198 86.2676 27.151 85.8926 27.1563C85.278 27.1667 84.7051 27.0573 84.1738 26.8281C83.6426 26.599 83.2129 26.2448 82.8848 25.7656C82.5566 25.2865 82.3926 24.6849 82.3926 23.9609V12.125ZM92.1094 19.875V27H89.7734V15H92.0156V16.9531H92.1641C92.4401 16.3177 92.8724 15.8073 93.4609 15.4219C94.0547 15.0365 94.8021 14.8438 95.7031 14.8438C96.5208 14.8438 97.237 15.0156 97.8516 15.3594C98.4661 15.6979 98.9427 16.2031 99.2812 16.875C99.6198 17.5469 99.7891 18.3776 99.7891 19.3672V27H97.4531V19.6484C97.4531 18.7786 97.2266 18.099 96.7734 17.6094C96.3203 17.1146 95.6979 16.8672 94.9062 16.8672C94.3646 16.8672 93.8828 16.9844 93.4609 17.2187C93.0443 17.4531 92.7135 17.7969 92.4688 18.25C92.2292 18.6979 92.1094 19.2396 92.1094 19.875ZM107.977 27.2422C106.852 27.2422 105.87 26.9844 105.031 26.4687C104.193 25.9531 103.542 25.2318 103.078 24.3047C102.615 23.3776 102.383 22.2943 102.383 21.0547C102.383 19.8099 102.615 18.7214 103.078 17.7891C103.542 16.8568 104.193 16.1328 105.031 15.6172C105.87 15.1016 106.852 14.8438 107.977 14.8438C109.102 14.8438 110.083 15.1016 110.922 15.6172C111.76 16.1328 112.411 16.8568 112.875 17.7891C113.339 18.7214 113.57 19.8099 113.57 21.0547C113.57 22.2943 113.339 23.3776 112.875 24.3047C112.411 25.2318 111.76 25.9531 110.922 26.4687C110.083 26.9844 109.102 27.2422 107.977 27.2422ZM107.984 25.2812C108.714 25.2812 109.318 25.0885 109.797 24.7031C110.276 24.3177 110.63 23.8047 110.859 23.1641C111.094 22.5234 111.211 21.8177 111.211 21.0469C111.211 20.2812 111.094 19.5781 110.859 18.9375C110.63 18.2917 110.276 17.7734 109.797 17.3828C109.318 16.9922 108.714 16.7969 107.984 16.7969C107.25 16.7969 106.641 16.9922 106.156 17.3828C105.677 17.7734 105.32 18.2917 105.086 18.9375C104.857 19.5781 104.742 20.2812 104.742 21.0469C104.742 21.8177 104.857 22.5234 105.086 23.1641C105.32 23.8047 105.677 24.3177 106.156 24.7031C106.641 25.0885 107.25 25.2812 107.984 25.2812ZM121.779 15V16.875H115.225V15H121.779ZM116.982 12.125H119.318V23.4766C119.318 23.9297 119.386 24.2708 119.521 24.5C119.657 24.724 119.831 24.8776 120.045 24.9609C120.264 25.0391 120.501 25.0781 120.756 25.0781C120.943 25.0781 121.107 25.0651 121.248 25.0391C121.389 25.013 121.498 24.9922 121.576 24.9766L121.998 26.9062C121.863 26.9583 121.67 27.0104 121.42 27.0625C121.17 27.1198 120.857 27.151 120.482 27.1563C119.868 27.1667 119.295 27.0573 118.764 26.8281C118.232 26.599 117.803 26.2448 117.475 25.7656C117.146 25.2865 116.982 24.6849 116.982 23.9609V12.125ZM129.406 27.2422C128.224 27.2422 127.206 26.9896 126.352 26.4844C125.503 25.974 124.846 25.2578 124.383 24.3359C123.924 23.4089 123.695 22.3229 123.695 21.0781C123.695 19.849 123.924 18.7656 124.383 17.8281C124.846 16.8906 125.492 16.1589 126.32 15.6328C127.154 15.1068 128.128 14.8438 129.242 14.8438C129.919 14.8438 130.576 14.9557 131.211 15.1797C131.846 15.4036 132.417 15.7552 132.922 16.2344C133.427 16.7135 133.826 17.3359 134.117 18.1016C134.409 18.862 134.555 19.7865 134.555 20.875V21.7031H125.016V19.9531H132.266C132.266 19.3385 132.141 18.7943 131.891 18.3203C131.641 17.8411 131.289 17.4635 130.836 17.1875C130.388 16.9115 129.862 16.7734 129.258 16.7734C128.602 16.7734 128.029 16.9349 127.539 17.2578C127.055 17.5755 126.68 17.9922 126.414 18.5078C126.154 19.0182 126.023 19.5729 126.023 20.1719V21.5391C126.023 22.3411 126.164 23.0234 126.445 23.5859C126.732 24.1484 127.13 24.5781 127.641 24.875C128.151 25.1667 128.747 25.3125 129.43 25.3125C129.872 25.3125 130.276 25.25 130.641 25.125C131.005 24.9948 131.32 24.8021 131.586 24.5469C131.852 24.2917 132.055 23.9766 132.195 23.6016L134.406 24C134.229 24.651 133.911 25.2214 133.453 25.7109C133 26.1953 132.43 26.5729 131.742 26.8437C131.06 27.1094 130.281 27.2422 129.406 27.2422Z" fill="#E4E4E7"/>
<path d="M33.448 5.672L36.232 6.008C35.656 8.504 34.872 11.432 33.88 14.792C32.92 18.12 32.04 20.824 31.24 22.904C30.44 24.952 29.56 27 28.6 29.048C27.672 31.064 26.68 32.664 25.624 33.848C24.568 35 23.544 35.576 22.552 35.576C21.56 35.576 20.824 35.208 20.344 34.472C19.896 33.736 19.672 32.44 19.672 30.584C19.672 28.696 19.944 24.76 20.488 18.776C21.032 12.76 21.304 9.496 21.304 8.984C21.336 8.44 21.208 8.168 20.92 8.168C20.568 8.168 20.152 8.664 19.672 9.656C19.192 10.616 18.824 11.352 18.568 11.864C17.896 13.368 17.464 14.424 17.272 15.032C15.48 19.064 13.88 22.392 12.472 25.016C11.064 27.64 9.448 30.072 7.624 32.312C6.984 33.08 6.072 33.864 4.888 34.664C3.704 35.464 2.6 36.072 1.576 36.488L0.52 33.656C3.176 32.536 5.576 30.6 7.72 27.848C9.864 25.064 12.072 21.192 14.344 16.232C16.648 11.272 18.296 7.928 19.288 6.2C20.408 4.376 21.544 3.464 22.696 3.464C23.432 3.464 24.008 3.72 24.424 4.232C24.84 4.744 25.048 5.416 25.048 6.248C25.048 7.048 24.76 10.408 24.184 16.328C23.64 22.248 23.368 26.04 23.368 27.704C23.368 29.368 23.432 30.456 23.56 30.968C23.72 31.448 23.976 31.688 24.328 31.688C24.776 31.688 25.256 31.208 25.768 30.248C27.528 26.824 30.088 18.632 33.448 5.672Z" fill="#16A34A"/>
</g>
<defs>
<clipPath id="clip0_1314_16285">
<rect width="135" height="40" fill="white"/>
</clipPath>
</defs>
</svg>
